<svg xmlns="http://www.w3.org/2000/svg" viewBox="0 0 512 512" width="480px" height="480px"><path fill="#14B6B9" d="M363.2,305.6c-3.1-2.6-2.6-8.8,2.5-8.8h12.2c-0.1-2.7-2-3.8-6.3-4.2c-5.4-0.5-10.9,0.1-16.3,0.2c-20.8,0.1-41.5-3.3-62.3-2.3v14.3h22.6c2.6,0,5.3,1.7,5.4,4.6c0.2,16.2,5.7,31.9,6,48c0,2.2-1.1,3.7-2.5,4.5c0.8,2.4,0.1,5.3-2.8,6.6c-35.1,15.4-74.1,4.8-105.3-14.8c-16.3-10.2-29.9-21.8-39.8-38.4c-8.7-14.7-14.6-30.8-17.9-47.5c-6.3-31.6-4-68.6,16.5-94.9c9.9-12.7,23.9-22,39.6-26c11.8-3,24.1-4.7,36.3-4.3c7.5,0.2,14.9,0.8,22.3,2c6.4,1,12.9,2,18.7,5.2c9.7,5.3,15.6,13.3,21.2,22.5c3.4,5.5,9.6,18.6,18,15.8c8-2.6,14-10.8,18.4-17.6c4.7-7.3,8.8-15,11.9-23c0.1-0.3,0.2-0.5,0.3-0.7c-0.7-0.8-1.6-1.6-2.5-2.3c-3.2-2.5-7-4.4-10.7-6.1c-9.7-4.4-20-7.5-30.3-10.3c-19.8-5.2-40.2-9.4-60.8-9.7c-50.2-0.7-100.6,17.5-130,60c-26.9,39-37.5,96-10.9,137.8c24.9,39.2,72.4,61.9,117.1,69.4c24.5,4.1,50.3,5.8,74.7,0.2c22.9-5.3,43.1-16.4,58.8-33.7c-0.3-0.6-0.4-1.2-0.4-2C367,335.2,363.8,320.5,363.2,305.6z"/><path fill="#283D5B" d="M474.2,161.7c-16.1-46.6-46.7-87.1-91.3-109.6c-50.9-25.7-111-28.1-166.4-19.3C166.7,40.8,114.2,58.8,76.9,94c-19.6,18.5-34.7,40.9-42.7,66.8c-8,26-10.4,53.1-12.1,80.1c-0.1,1.1-0.4,2-1,2.7c0,0.2,0.1,0.5,0.1,0.8c0,52.9-1.1,108.3,30.1,153.9c25.3,37.1,64.5,61.5,107.2,73.7c88,25.2,194.2,9.6,264.9-50.8C497.5,357.9,504.3,248.9,474.2,161.7z M387,302.7c-0.6,2-2.2,4-4.5,4h-9.2c0.7,13.7,3.4,27.2,3.8,40.9c2.2,1.5,3.4,4.7,1.2,7.4c-26.5,31.9-66.3,45-107,44.2c-38.5-0.8-77.6-10.1-111-29.7c-19.9-11.7-38.5-26.9-51-46.6c-12.8-20.1-18.7-43.5-17.6-67.2C94,207.2,119,158.8,161,133.1c39.2-24.1,87.7-29.4,132.4-20.9c16.7,3.2,33.4,7.2,49.4,13c10.4,3.8,30.2,10.5,30.7,24.1c0.1,2.8-1.7,4.5-3.9,5.1c-2.9,7.2-6.6,14.1-10.9,20.6c-4.9,7.5-10.8,15.8-18.8,20.2c-7.3,4-15.6,4.6-22.3-1c-8.1-6.8-12.1-17-18.3-25.3c-3.4-4.6-7.7-8.3-12.9-10.8c-6.1-2.8-13.3-3.6-19.9-4.4c-14.3-1.7-27.9-1.1-42.1,1.3c-15.8,2.7-30.3,10.4-40.4,23c-9.7,12.2-15,27.4-17,42.7c-4.4,32.4,3.4,68.4,22.3,95.4c12.2,17.4,30.4,29.4,49.5,38.3c25,11.6,52.7,16,78.7,5.1c-0.1-0.4-0.2-0.9-0.2-1.4c-0.2-14.6-4.8-28.8-5.8-43.4h-22.8c-2.6,0-5.4-1.7-5.4-4.6v-24c0-2.7,1.7-5.1,4.6-5.4c24.5-2,49,2.7,73.5,1.8c6.3-0.2,14.5-0.9,20.1,2.5C388,288.9,389.2,295.6,387,302.7z"/><path d="M487.8,168.7c-14.2-46.9-40.9-88.3-82-115.7C359.5,22,300.5,14.5,246,18.5c-51.7,3.8-104.6,17.9-148.6,46c-21.6,13.8-40.9,31.9-55,53.4c-14.9,22.7-22.5,48.8-26.6,75.4c-2.3,15.1-3.4,30.3-4.4,45.6c-0.1,0.9,0.1,1.8,0.4,2.6c-0.9,0.9-1.5,2.2-1.5,3.8c0,30.1-0.6,60.4,4.6,90.2c4.8,27.1,15.2,52.9,31.6,75.1c29.2,39.5,73.5,63.3,120.4,75c88.9,22.2,194.2,3.7,264.5-57.1C505.5,364.4,514.7,257.6,487.8,168.7z M423.4,421.2c-70.8,60.4-176.9,76-264.9,50.8c-42.7-12.2-81.9-36.6-107.2-73.7c-31.1-45.6-30.1-101-30.1-153.9c0-0.3,0-0.5-0.1-0.8c0.5-0.7,0.9-1.6,1-2.7c1.7-27,4.1-54.1,12.1-80.1c7.9-25.9,23.1-48.3,42.7-66.8c37.3-35.2,89.8-53.2,139.6-61.1c55.5-8.8,115.5-6.4,166.4,19.3c44.6,22.5,75.1,63.1,91.3,109.6C504.3,248.9,497.5,357.9,423.4,421.2z"/><path d="M381.4,284.9c-5.7-3.4-13.8-2.7-20.1-2.5c-24.5,1-49-3.8-73.5-1.8c-2.9,0.2-4.6,2.6-4.6,5.4v24c0,2.9,2.8,4.6,5.4,4.6h22.8c1,14.6,5.6,28.8,5.8,43.4c0,0.5,0.1,1,0.2,1.4c-26,10.9-53.7,6.5-78.7-5.1c-19.1-8.9-37.3-20.9-49.5-38.3c-18.8-26.9-26.6-63-22.3-95.4c2.1-15.3,7.3-30.5,17-42.7c10.1-12.6,24.6-20.3,40.4-23c14.2-2.4,27.8-3,42.1-1.3c6.6,0.8,13.8,1.6,19.9,4.4c5.2,2.4,9.5,6.2,12.9,10.8c6.2,8.3,10.2,18.5,18.3,25.3c6.7,5.6,15,5,22.3,1c8-4.4,13.9-12.7,18.8-20.2c4.3-6.4,8-13.4,10.9-20.6c2.1-0.5,4-2.3,3.9-5.1c-0.5-13.7-20.3-20.4-30.7-24.1c-16-5.8-32.7-9.9-49.4-13c-44.7-8.5-93.2-3.2-132.4,20.9c-42,25.8-67,74.2-69.2,122.7c-1.1,23.7,4.9,47.1,17.6,67.2c12.5,19.7,31,34.9,51,46.6c33.4,19.6,72.4,28.9,111,29.7c40.6,0.8,80.5-12.2,107-44.2c2.2-2.7,1-5.9-1.2-7.4c-0.3-13.7-3.1-27.2-3.8-40.9h9.2c2.4,0,3.9-2,4.5-4C389.2,295.6,388,288.9,381.4,284.9z M365.7,296.7c-5.1,0-5.7,6.2-2.5,8.8c0.6,14.9,3.8,29.6,3.9,44.5c0,0.8,0.2,1.4,0.4,2c-15.7,17.3-35.9,28.4-58.8,33.7c-24.4,5.6-50.2,3.9-74.7-0.2c-44.7-7.5-92.2-30.2-117.1-69.4c-26.6-41.8-16-98.8,10.9-137.8c29.4-42.5,79.8-60.8,130-60c20.6,0.3,40.9,4.5,60.8,9.7c10.3,2.7,20.5,5.9,30.3,10.3c3.7,1.7,7.4,3.6,10.7,6.1c0.9,0.7,1.8,1.5,2.5,2.3c-0.1,0.2-0.2,0.5-0.3,0.7c-3.1,8.1-7.2,15.8-11.9,23c-4.4,6.8-10.4,14.9-18.4,17.6c-8.4,2.8-14.6-10.3-18-15.8c-5.6-9.2-11.5-17.2-21.2-22.5c-5.8-3.2-12.2-4.1-18.7-5.2c-7.4-1.2-14.8-1.8-22.3-2c-12.2-0.4-24.5,1.3-36.3,4.3c-15.7,3.9-29.7,13.2-39.6,26c-20.5,26.3-22.8,63.4-16.5,94.9c3.3,16.7,9.2,32.8,17.9,47.5c9.9,16.6,23.5,28.2,39.8,38.4c31.2,19.5,70.2,30.1,105.3,14.8c2.9-1.3,3.6-4.2,2.8-6.6c1.5-0.8,2.6-2.3,2.5-4.5c-0.3-16.1-5.8-31.8-6-48c0-2.9-2.8-4.6-5.4-4.6h-22.6v-14.3c20.8-1,41.5,2.4,62.3,2.3c5.4,0,10.9-0.7,16.3-0.2c4.2,0.4,6.1,1.5,6.3,4.2H365.7z"/></svg>