<svg xmlns="http://www.w3.org/2000/svg" viewBox="0 0 512 512" width="480px" height="480px"><path fill="#EF4823" d="M269.4,140.4c-0.9,0.1-1.8,0-2.8-0.5c-4.1-1.8-9.7-0.9-13.6,0.9c-4.2,1.9-5.4,5.7-4.9,10c0.5,4.8,2,9.5,2.4,14.4c0.4,4.4-0.3,8.7-0.4,13.1c-0.1,4.5,0,10.1,4.9,12.2c4,1.7,8.9,0.9,12.5-1.7c5.5-4,6.2-11.6,6.4-17.9C274,163.9,274.1,149.1,269.4,140.4z"/><path fill="#D6E5E5" d="M408.2,292.3c-2.1-12.7-5.5-25.7-13.7-35.8c-15-18.4-40.9-24.7-63.7-25c-31.7-0.4-63,6-94.6,5.3c-30.5-0.7-62.6-5.6-92.5,2.3c-17.7,4.7-31.7,17-37.1,34.7c-10.9,35.5,0.4,73.4-3.1,109.7c0,0,0,0,0,0c1.8,4.6,3,9.4,6.1,13.5c3.1,4.1,6.9,7.6,11.4,10.2c9.2,5.3,19.4,7.7,29.8,8.8c27.1,2.9,54.8,0,81.9-1.2c15.3-0.7,30.6-1.2,45.9-0.8c14.5,0.4,28.9,2.9,43.3,4c23.4,1.8,54.7,2.9,71.6-16.7c15.2-17.7,16.2-43.8,16.9-65.9C410.9,321,410.5,306.5,408.2,292.3z M186.5,384.6c0,1.9-0.8,3.8-2.3,5c-0.5,2.1-2.1,3.9-4.8,4c-1.3,0-2.6,0-3.9,0.1c-2.2,0.7-4,1.4-6.6,0.8c-2.8-0.7-4.4-3.4-4.4-6c0-0.3-0.1-0.5-0.1-0.8v-2.2c0-0.3,0-0.6,0.1-0.9c0.4-9.8,2.6-19.3,2.1-29.2c-0.5-10.5-2.3-20.9-2.6-31.4c-0.2-9.8,0.6-19.9-0.7-29.7c-0.3-2.1-0.8-4.4-1.2-6.7h-13.8c-3.4,0-6.8,0.5-10.2,0.4c-8.5-0.3-13.9-5-12.6-14c0.2-1,0.5-1.8,1.1-2.4c0.4-2.2,1.9-4,4.8-4c13.8,0,27.7-0.4,41.5,0.5c11,0.7,23,2.3,33.9-0.1c0.8-0.9,2-1.4,3.6-1.4h2c4.8,0,7.3,5.5,4.9,8.8c0.2,4.7,0.8,10.1-4.7,11.9c-1.7,0.6-3.2,0.3-4.4-0.4c-1.3,0.5-2.8,0.8-4.4,0.8c-7.1,0.1-14.3,0.1-21.5,0C182.8,320,186.4,352.2,186.5,384.6z M255.4,388c-0.4,2.5-2.6,4.1-5,4.4c-6.2,0.9-9.4-1.3-11.2-4.8c-6.4,2.8-13.7,4.1-18.9,3.9c-12.7-0.5-18.1-10.9-19.5-22.4c-1.2-10-0.1-20.1-0.8-30.1c-0.4-5.7-0.9-11.4-0.6-17.1c0.1-2.4,0.2-5,0.9-7.4c-0.4-1.1-0.3-2.4,0.6-3.8c0.1-0.4,0.3-0.9,0.4-1.3c0.5-0.9,1.1-1.7,2-2.3c2.1-1.4,4.4-1,6.7-0.5c3.1,0.7,4.6,3.4,4.3,6.4c-0.5,5.1,0.7,10.3,1.6,15.3c1.1,5.4,1.7,10.6,1.9,16.1c0.4,9.6,0.5,19.1,0.5,28.7c0.3,0.1,0.6,0.1,1.1,0.2c2.7,0.4,5.5,0,8.2-0.5c3.2-0.6,6.5-1.7,9.5-3c0.1,0,0.2-0.1,0.3-0.1c0-1,0-1.9,0-2.8c-0.4-9.4-1.3-18.8-1.4-28.3c-0.1-9.7,0.4-19.5,0.4-29.2c0-2.8,1.9-5.9,5.1-5.9h3c0.7,0,1.4,0.1,2,0.3c3-0.7,6.6,0.8,6.9,4.7c1.2,14,2.8,27.7,3,41.8C256.7,362.9,257.3,375.6,255.4,388z M322.5,352.6c0.2,11.2,2.1,32.9-12.3,36.9c-7.1,2-14.2-0.2-20.4-3.7c-1.5-0.8-2.9-1.7-4.4-2.5c-0.2,2.1-0.7,3.7-2.3,5.3c-1.5,1.6-3.9,2.1-5.9,1.5c-3.2,2.3-8.7,1.3-8.7-3.7c-0.1-38.4-3.9-76.6-3-115c0-0.5,0.1-0.9,0.2-1.4c0-3.2,2.4-6.4,6.3-5.5c2.1,0.5,3.9,1.7,6,2c2.4,0.3,4.3,2.6,4.4,5c0.5,9.2,0.1,18.4-0.1,27.6c-0.1,2.1-0.1,4.2-0.1,6.3c9.4-5.2,21.8-4.9,30.6,1.8C327.2,318,322.3,337.3,322.5,352.6z M388.5,347.6c0.2,2.8-2.1,5.9-5.1,5.9c-6,0-12.1-0.5-18.1-0.5c-3.4,0-8.9-0.4-12.7,0.5c-0.5,5.2-1.8,10.3-2.3,15.5c-0.3,3.7,0.6,7.1,3.4,8.8c2.6,0.3,5.2,0.2,7.6-0.1c1.4-0.1,2.9-0.4,4.4-0.6c1.4-0.8,2.6-1.7,3.5-2.9c1.7-2.2,2.1-7.2,4.8-9.6c3.7-3.3,7.4-3.1,11.3-0.2c8.2,6.2-2.7,18-8.9,20.6c-7.1,6.2-19,7.1-27.8,3.2c-0.6-0.2-1.2-0.3-1.9-0.5c-5.4-1.7-10.3-4.6-12.2-10.3c-1.1-3.4-1.3-6.8-1.2-10.2c-2-7.8-0.6-17.3,0-24.6c0.4-5.1,1.2-10.3,1.2-15.4c0.1-5.5-0.3-12.3,2.8-17.3c7.4-11.8,25.6-12.1,36.8-5.9c7.1,3.9,12.4,9.4,14.1,17.5C390.1,330.1,387.8,338.8,388.5,347.6z"/><path fill="#D6E5E5" d="M371.7 324.9c-1.9-4.5-7.4-8.3-12.4-7.3-5 1-5.8 7.2-6.1 11.3-.2 2.8-.2 5.6-.2 8.5 2.2.1 4.4.1 6.7.2 1.5.1 11.3 2 11.6 1.3C373.1 334.6 373.5 329.3 371.7 324.9zM305.2 343.8c-.1-4.5-.3-9.1-1-13.6-.4-2.5-1.2-6.6-2.1-7.7-2.1-2.6-15.4-6.2-16.7-1.4-.4 1.7-1.4 2.8-2.6 3.5 0 .8.1 1.7.1 2.5.5 11.3.9 22.7 1.2 34 0 0 0 .1.1.1 1.5 4.1 7 6.8 10.8 8.2 3.2 1.1 5.5 1.5 6.6-.8C305.2 361.2 305.3 351.8 305.2 343.8z"/><path fill="#EF4823" d="M307.4,378.6c-0.1,0.1-0.3,0.2-0.4,0.3c0.7-0.4,1.4-0.9,1.9-1.6c0.1-0.1,0.2-0.3,0.3-0.4C308.6,377.5,308,378.1,307.4,378.6z"/><path fill="#EF4823" d="M474.2,161.7c-16.1-46.6-46.7-87.1-91.3-109.6c-51-25.7-111-28.1-166.4-19.3C166.7,40.8,114.2,58.8,76.9,94c-19.6,18.5-34.7,40.9-42.7,66.8c-8,26-10.4,53.1-12.1,80.1c-0.1,1.1-0.4,2-1,2.7c0,0.2,0.1,0.5,0.1,0.8c0,52.9-1.1,108.3,30.1,153.9c25.3,37.1,64.5,61.5,107.2,73.7c88,25.2,194.2,9.6,264.9-50.8C497.5,357.9,504.3,248.9,474.2,161.7z M294.6,137c0.1-2.4,0.2-5,0.9-7.4c-0.4-1.1-0.3-2.4,0.6-3.8c0.1-0.4,0.3-0.9,0.4-1.3c0.5-0.9,1.1-1.7,2-2.3c2.1-1.4,4.4-1,6.7-0.5c3.1,0.7,4.6,3.4,4.3,6.4c-0.5,5.1,0.7,10.3,1.6,15.3c1.1,5.4,1.7,10.6,1.9,16.1c0.4,9.6,0.5,19.1,0.5,28.7c0.3,0.1,0.6,0.1,1.1,0.2c2.7,0.4,5.5,0,8.2-0.5c3.2-0.6,6.5-1.7,9.5-3c0.1,0,0.2-0.1,0.3-0.1c0-1,0-1.9,0-2.8c-0.4-9.4-1.3-18.8-1.4-28.3c-0.1-9.7,0.4-19.5,0.4-29.2c0-2.8,1.9-5.9,5.1-5.9h3c0.7,0,1.4,0.1,2,0.3c3-0.7,6.6,0.8,6.9,4.7c1.2,14,2.8,27.7,3,41.8c0.2,12.5,0.8,25.2-1.1,37.7c-0.4,2.5-2.6,4.1-5,4.4c-6.2,0.9-9.4-1.3-11.2-4.8c-6.4,2.8-13.7,4.1-18.9,3.9c-12.7-0.5-18.1-10.9-19.5-22.4c-1.2-10-0.1-20.1-0.8-30.1C294.8,148.4,294.3,142.7,294.6,137z M287.8,143.8c2.6,8.8,3.1,17.9,3.3,27.1c0.1,8.1,0.1,17.8-4.5,24.9c-1.1,1.7-2.4,3.2-3.8,4.5c-5.2,7.4-16.7,10-26,9c-6.1-0.7-12.5-2.7-17.1-6.8c-0.1,0-0.1,0-0.2,0c-2.8,0.2-5.9-2.1-5.9-5.1v-4.5c-2.7-6.9-1.8-14-1.3-21.3c-0.3-4.2-0.3-8.5-0.3-12.8c-0.8-8.1-1.9-17.7,1.9-24.7c1.5-4.8,4.1-9.2,8.4-12.1c8.2-5.7,20.7-7.1,29.4-1.4C279.7,126,285,134.5,287.8,143.8z M153.6,70.5h2c0.4,0,0.9,0,1.3,0.1c10.1,0.6,17.7,4,23.9,12.8c6.8,9.6,12.7,19.9,17.8,30.6c2.4-3.3,5.3-6.3,8.2-9.3c5-5.1,8.9-10,12.3-16.4c3-5.7,6.2-11.5,11.5-15.4c0.2-0.5,0.3-1,0.5-1.4c1.4-4.1,5.6-3.8,8.2-1.5c3.4,0,6.8,0.7,10.3,0.4c1.8-0.2,3.4,0.6,4.4,1.8c0.7,0.1,1.4,0.2,2.1,0.3c4.4,0.7,5.4,5.9,3.1,9c-13.9,18.8-28.4,38-45.7,54c-0.1,20.2-0.7,40.4-0.2,60.6c0.7,0.8,1.2,1.9,1.2,3.4v0.3c0.2,0.7,0.2,1.4,0,2.1v0.6c0,2.8-1.9,5.9-5.1,5.9h-1c-0.6,0-1.1-0.1-1.6-0.2c-1.7,0.2-3.5,0.2-5.4,0.2c-3.4,0-7.7,0.7-10.5-1.7c-2.7-2.3-2.8-5.7-3.2-9c-0.8-6.4-0.6-12.7-0.4-19.1c0.3-9.4-0.2-18.6-0.6-27.9c-0.2-3.7-0.5-7.9-0.3-12.1c-3.3-6.5-7.8-12.3-12.1-18.1c-3.3-4.6-6.5-9.2-10.1-13.6c-6.4-7.8-15.3-17.5-14.7-28.3C147.7,75.3,148.9,70.5,153.6,70.5z M420,356c-2,21.5-7,44.3-24.6,58.6c-21.6,17.5-53.2,16.1-79.3,13.8c-15.4-1.4-30.8-3.6-46.2-3.7c-16,0-31.9,0.7-47.9,1.5c-26.6,1.3-54.8,4.3-81.3-0.7c-10.7-2-21.4-5.5-30.2-12.2c-4.5-3.4-8.7-7.7-11.7-12.5c-3.3-5.2-4.5-11.1-7.1-16.6c-1.1-2.3-0.4-4.2,1-5.5c0.9-11.4,0.2-22.9-0.5-34.3c-1.9-34.2-6.8-78.8,23.1-103.2c20.1-16.4,48.7-17.7,73.4-17.2c15.5,0.3,30.9,1.5,46.4,1.8c15.7,0.3,31.3-1.4,46.9-2.8c27.9-2.5,57.7-5.9,84.8,3.3c22.5,7.6,40.8,22.6,47.8,45.9C422.8,299.3,422.6,328.1,420,356z"/><path d="M487.8,168.7c-14.2-46.9-40.9-88.3-82-115.7C359.5,22,300.5,14.5,246,18.5c-51.7,3.8-104.6,17.9-148.6,46c-21.6,13.8-40.9,31.9-55,53.4c-14.9,22.7-22.5,48.8-26.6,75.4c-2.3,15.1-3.4,30.3-4.4,45.6c-0.1,0.9,0.1,1.8,0.4,2.6c-0.9,0.9-1.5,2.2-1.5,3.8c0,30.1-0.6,60.4,4.6,90.2c4.8,27.1,15.2,52.9,31.6,75.1c29.2,39.5,73.5,63.3,120.4,75c88.9,22.2,194.2,3.7,264.5-57.1C505.5,364.4,514.7,257.6,487.8,168.7z M423.4,421.2c-70.8,60.4-176.9,76-264.9,50.8c-42.7-12.2-81.9-36.6-107.2-73.7c-31.1-45.6-30.1-101-30.1-153.9c0-0.3,0-0.5-0.1-0.8c0.5-0.7,0.9-1.6,1-2.7c1.7-27,4.1-54.1,12.1-80.1c7.9-25.9,23.1-48.3,42.7-66.8c37.3-35.2,89.8-53.2,139.6-61.1c55.5-8.8,115.5-6.4,166.4,19.3c44.6,22.5,75.1,63.1,91.3,109.6C504.3,248.9,497.5,357.9,423.4,421.2z"/><path fill="#D6E5E5" d="M414.7,272.2c-7-23.4-25.3-38.3-47.8-45.9c-27.1-9.1-56.9-5.8-84.8-3.3c-15.6,1.4-31.2,3.1-46.9,2.8c-15.5-0.3-30.9-1.5-46.4-1.8c-24.8-0.5-53.4,0.8-73.4,17.2c-29.8,24.4-25,69-23.1,103.2c0.6,11.4,1.3,22.9,0.5,34.3c-1.4,1.2-2.1,3.2-1,5.5c2.6,5.5,3.8,11.4,7.1,16.6c3,4.8,7.2,9.1,11.7,12.5c8.7,6.7,19.5,10.2,30.2,12.2c26.4,5,54.7,2,81.3,0.7c16-0.8,31.9-1.6,47.9-1.5c15.5,0,30.8,2.3,46.2,3.7c26.1,2.3,57.7,3.7,79.3-13.8c17.6-14.3,22.6-37.1,24.6-58.6C422.6,328.1,422.8,299.3,414.7,272.2z M410.4,335.3c-0.7,22.1-1.7,48.3-16.9,65.9c-16.9,19.6-48.2,18.4-71.6,16.7c-14.4-1.1-28.9-3.6-43.3-4c-15.3-0.4-30.6,0.1-45.9,0.8c-27.1,1.3-54.9,4.1-81.9,1.2c-10.4-1.1-20.7-3.6-29.8-8.8c-4.4-2.5-8.3-6.1-11.4-10.2c-3.1-4.1-4.4-8.8-6.1-13.5c0,0,0,0,0,0c3.5-36.3-7.7-74.1,3.1-109.7c5.4-17.6,19.4-30,37.1-34.7c30-7.9,62-3.1,92.5-2.3c31.6,0.8,63-5.7,94.6-5.3c22.8,0.3,48.7,6.6,63.7,25c8.3,10.2,11.6,23.2,13.7,35.8C410.5,306.5,410.9,321,410.4,335.3z"/><path fill="#EF4823" d="M212.6,266.5h-2c-1.6,0-2.8,0.6-3.6,1.4c-10.9,2.4-23,0.8-33.9,0.1c-13.8-0.9-27.7-0.5-41.5-0.5c-2.9,0-4.5,1.8-4.8,4c-0.5,0.6-0.9,1.5-1.1,2.4c-1.4,9,4,13.6,12.6,14c3.4,0.1,6.8-0.4,10.2-0.4h13.8c0.4,2.3,1,4.6,1.2,6.7c1.3,9.8,0.5,19.9,0.7,29.7c0.2,10.5,2,20.9,2.6,31.4c0.5,9.9-1.7,19.4-2.1,29.2c0,0.3-0.1,0.6-0.1,0.9v2.2c0,0.3,0,0.5,0.1,0.8c-0.1,2.6,1.6,5.3,4.4,6c2.6,0.6,4.4-0.1,6.6-0.8c1.3-0.1,2.6-0.1,3.9-0.1c2.6,0,4.3-1.8,4.8-4c1.5-1.1,2.3-3.1,2.3-5c-0.1-32.4-3.7-64.6-4-97c7.2,0.1,14.3,0.1,21.5,0c1.7,0,3.2-0.3,4.4-0.8c1.2,0.7,2.7,1,4.4,0.4c5.5-1.8,4.9-7.2,4.7-11.9C219.9,272,217.4,266.5,212.6,266.5z"/><path fill="#EF4823" d="M256.5,350.4c-0.2-14.1-1.8-27.8-3-41.8c-0.3-3.9-3.9-5.4-6.9-4.7c-0.6-0.2-1.3-0.3-2-0.3h-3c-3.2,0-5.1,3.1-5.1,5.9c0,9.7-0.5,19.5-0.4,29.2c0.1,9.4,1,18.8,1.4,28.3c0,0.9,0,1.8,0,2.8c-0.1,0-0.2,0.1-0.3,0.1c-3,1.3-6.3,2.3-9.5,3c-2.7,0.5-5.5,0.9-8.2,0.5c-0.4-0.1-0.8-0.1-1.1-0.2c0-9.6-0.1-19.1-0.5-28.7c-0.3-5.5-0.9-10.7-1.9-16.1c-1-5-2.1-10.2-1.6-15.3c0.3-3.1-1.2-5.7-4.3-6.4c-2.3-0.5-4.6-0.9-6.7,0.5c-0.9,0.6-1.5,1.4-2,2.3c-0.1,0.4-0.3,0.9-0.4,1.3c-0.8,1.4-0.9,2.7-0.6,3.8c-0.7,2.4-0.8,5-0.9,7.4c-0.3,5.7,0.2,11.4,0.6,17.1c0.7,10-0.4,20.1,0.8,30.1c1.4,11.5,6.8,21.9,19.5,22.4c5.2,0.2,12.5-1.1,18.9-3.9c1.7,3.6,5,5.7,11.2,4.8c2.4-0.4,4.6-1.9,5-4.4C257.3,375.6,256.7,362.9,256.5,350.4z"/><path fill="#D6E5E5" d="M351.6,165.5c-0.2-14.1-1.8-27.8-3-41.8c-0.3-3.9-3.9-5.4-6.9-4.7c-0.6-0.2-1.3-0.3-2-0.3h-3c-3.2,0-5.1,3.1-5.1,5.9c0,9.7-0.5,19.5-0.4,29.2c0.1,9.4,1,18.8,1.4,28.3c0,0.9,0,1.8,0,2.8c-0.1,0-0.2,0.1-0.3,0.1c-3,1.3-6.3,2.3-9.5,3c-2.7,0.5-5.5,0.9-8.2,0.5c-0.4-0.1-0.8-0.1-1.1-0.2c0-9.6-0.1-19.1-0.5-28.7c-0.3-5.5-0.9-10.7-1.9-16.1c-1-5-2.1-10.2-1.6-15.3c0.3-3.1-1.2-5.7-4.3-6.4c-2.3-0.5-4.6-0.9-6.7,0.5c-0.9,0.6-1.5,1.4-2,2.3c-0.1,0.4-0.3,0.9-0.4,1.3c-0.8,1.4-0.9,2.7-0.6,3.8c-0.7,2.4-0.8,5-0.9,7.4c-0.3,5.7,0.2,11.4,0.6,17.1c0.7,10-0.4,20.1,0.8,30.1c1.4,11.5,6.8,21.9,19.5,22.4c5.2,0.2,12.5-1.1,18.9-3.9c1.7,3.6,5,5.7,11.2,4.8c2.4-0.4,4.6-1.9,5-4.4C352.4,190.7,351.8,178,351.6,165.5z"/><path fill="#EF4823" d="M312.9 307.3c-8.8-6.7-21.2-6.9-30.6-1.8 0-2.1 0-4.2.1-6.3.2-9.2.7-18.4.1-27.6-.1-2.3-2.1-4.6-4.4-5-2.1-.3-3.9-1.5-6-2-4-.9-6.4 2.3-6.3 5.5-.1.4-.2.9-.2 1.4-.9 38.4 2.9 76.6 3 115 0 5 5.5 6 8.7 3.7 2 .6 4.4.1 5.9-1.5 1.6-1.7 2.1-3.2 2.3-5.3 1.4.9 2.9 1.7 4.4 2.5 6.3 3.4 13.4 5.7 20.4 3.7 14.3-4 12.4-25.7 12.3-36.9C322.3 337.3 327.2 318 312.9 307.3zM301.7 368.5c-1.1 2.3-3.4 1.9-6.6.8-3.8-1.3-9.4-4.1-10.8-8.2 0 0 0-.1-.1-.1-.3-11.3-.7-22.7-1.2-34 0-.8-.1-1.7-.1-2.5 1.2-.7 2.2-1.8 2.6-3.5 1.2-4.7 14.6-1.2 16.7 1.4.9 1.1 1.7 5.2 2.1 7.7.7 4.5.9 9 1 13.6C305.3 351.8 305.2 361.2 301.7 368.5zM308.9 377.4c-.5.7-1.2 1.2-1.9 1.6.1-.1.3-.2.4-.3.6-.5 1.2-1.1 1.7-1.7C309 377.1 309 377.2 308.9 377.4zM352.6 353.5c3.8-1 9.3-.5 12.7-.5 6.1 0 12.1.5 18.1.5 3 0 5.3-3.1 5.1-5.9-.7-8.8 1.6-17.5-.2-26.2-1.7-8.1-7-13.6-14.1-17.5-11.2-6.2-29.5-5.8-36.8 5.9-3.1 4.9-2.7 11.7-2.8 17.3-.1 5.1-.8 10.3-1.2 15.4-.6 7.2-2 16.8 0 24.6-.1 3.4.1 6.8 1.2 10.2 1.9 5.7 6.8 8.6 12.2 10.3.6.2 1.2.4 1.9.5 8.8 4 20.7 3 27.8-3.2 6.2-2.6 17.1-14.3 8.9-20.6-3.9-3-7.6-3.1-11.3.2-2.7 2.4-3.1 7.4-4.8 9.6-.9 1.2-2.1 2.1-3.5 2.9-1.5.3-2.9.5-4.4.6-2.5.3-5.1.3-7.6.1-2.8-1.7-3.7-5-3.4-8.8C350.8 363.8 352.1 358.7 352.6 353.5zM353.2 328.9c.3-4.1 1.1-10.2 6.1-11.3 5-1 10.5 2.8 12.4 7.3 1.8 4.4 1.4 9.6-.4 13.9-.3.7-10.1-1.3-11.6-1.3-2.2-.1-4.4-.1-6.7-.2C353 334.6 353 331.7 353.2 328.9z"/><path fill="#D6E5E5" d="M256,72.6c-0.7-0.1-1.4-0.2-2.1-0.3c-1-1.2-2.6-1.9-4.4-1.8c-3.5,0.3-6.9-0.4-10.3-0.4c-2.5-2.4-6.8-2.7-8.2,1.5c-0.2,0.5-0.3,1-0.5,1.4c-5.2,3.9-8.5,9.7-11.5,15.4c-3.3,6.4-7.3,11.3-12.3,16.4c-2.9,3-5.9,5.9-8.2,9.3c-5.1-10.7-11-21-17.8-30.6c-6.3-8.8-13.9-12.1-23.9-12.8c-0.4-0.1-0.8-0.1-1.3-0.1h-2c-4.7,0-5.9,4.8-4.1,8c-0.6,10.8,8.3,20.5,14.7,28.3c3.6,4.4,6.8,9,10.1,13.6c4.2,5.9,8.8,11.7,12.1,18.1c-0.2,4.2,0.1,8.4,0.3,12.1c0.4,9.4,1,18.5,0.6,27.9c-0.2,6.4-0.3,12.8,0.4,19.1c0.4,3.3,0.6,6.7,3.2,9c2.8,2.4,7.1,1.8,10.5,1.7c1.9,0,3.7,0,5.4-0.2c0.5,0.1,1.1,0.2,1.6,0.2h1c3.2,0,5.1-3.1,5.1-5.9V202c0.2-0.7,0.2-1.5,0-2.1v-0.3c0-1.4-0.5-2.6-1.2-3.4c-0.5-20.2,0-40.4,0.2-60.6c17.3-16,31.8-35.1,45.7-54C261.5,78.5,260.5,73.3,256,72.6z"/><path fill="#D6E5E5" d="M291.1,170.9c-0.2-9.1-0.7-18.3-3.3-27.1c-2.8-9.4-8.1-17.8-16.3-23.2c-8.7-5.7-21.1-4.3-29.4,1.4c-4.2,2.9-6.9,7.3-8.4,12.1c-3.8,7-2.7,16.6-1.9,24.7c0,4.3,0,8.6,0.3,12.8c-0.5,7.3-1.4,14.4,1.3,21.3v4.5c0,3,3.1,5.3,5.9,5.1c0.1,0,0.1,0,0.2,0c4.6,4.1,11.1,6.2,17.1,6.8c9.3,1,20.8-1.5,26-9c1.4-1.3,2.7-2.8,3.8-4.5C291.2,188.7,291.2,179,291.1,170.9z M273.7,170.9c-0.2,6.3-0.9,14-6.4,17.9c-3.5,2.5-8.4,3.4-12.5,1.7c-4.9-2.1-4.9-7.7-4.9-12.2c0.1-4.4,0.8-8.7,0.4-13.1c-0.4-4.8-1.9-9.5-2.4-14.4c-0.4-4.3,0.8-8.1,4.9-10c4-1.8,9.5-2.7,13.6-0.9c1,0.4,1.9,0.6,2.8,0.5C274.1,149.1,274,163.9,273.7,170.9z"/></svg>